<svg width="530" height="200" xmlns="http://www.w3.org/2000/svg" viewBox="0 0 530 200"><g fill="rgba(255,255,255,0.92)"><path d="M 99.06,82.02 Q 68.54,52.47 33.49,67.56 Q 32.83,52.97 46.77,48.60 Q 73.68,49.44 100.94,82.02 Z"/><path d="M 108.17,83.96 Q 96.52,43.11 58.62,38.65 Q 65.35,25.68 79.60,28.87 Q 102.49,43.05 109.80,84.90 Z"/><path d="M 115.10,90.20 Q 125.43,48.99 94.84,26.18 Q 107.15,18.31 117.90,28.20 Q 130.63,51.93 116.04,91.83 Z"/><path d="M 117.98,99.06 Q 147.53,68.54 132.44,33.49 Q 147.03,32.83 151.40,46.77 Q 150.56,73.68 117.98,100.94 Z"/><path d="M 116.04,108.17 Q 156.89,96.52 161.35,58.62 Q 174.32,65.35 171.13,79.60 Q 156.95,102.49 115.10,109.80 Z"/><path d="M 109.80,115.10 Q 151.01,125.43 173.82,94.84 Q 181.69,107.15 171.80,117.90 Q 148.07,130.63 108.17,116.04 Z"/><path d="M 100.94,117.98 Q 131.46,147.53 166.51,132.44 Q 167.17,147.03 153.23,151.40 Q 126.32,150.56 99.06,117.98 Z"/><path d="M 91.83,116.04 Q 103.48,156.89 141.38,161.35 Q 134.65,174.32 120.40,171.13 Q 97.51,156.95 90.20,115.10 Z"/><path d="M 84.90,109.80 Q 74.57,151.01 105.16,173.82 Q 92.85,181.69 82.10,171.80 Q 69.37,148.07 83.96,108.17 Z"/><path d="M 82.02,100.94 Q 52.47,131.46 67.56,166.51 Q 52.97,167.17 48.60,153.23 Q 49.44,126.32 82.02,99.06 Z"/><path d="M 83.96,91.83 Q 43.11,103.48 38.65,141.38 Q 25.68,134.65 28.87,120.40 Q 43.05,97.51 84.90,90.20 Z"/><path d="M 90.20,84.90 Q 48.99,74.57 26.18,105.16 Q 18.31,92.85 28.20,82.10 Q 51.93,69.37 91.83,83.96 Z"/></g><text x="215" y="133" font-family="Outfit,Segoe UI,Arial,sans-serif" font-size="92" font-weight="700" fill="#ffffff">V</text><text x="279" y="133" font-family="Outfit,Segoe UI,Arial,sans-serif" font-size="86" font-weight="700" fill="#a8c8f8">i</text><text x="306" y="133" font-family="Outfit,Segoe UI,Arial,sans-serif" font-size="92" font-weight="700" fill="#ffffff">F</text><text x="364" y="133" font-family="Outfit,Segoe UI,Arial,sans-serif" font-size="86" font-weight="700" fill="#a8c8f8">o</text><text x="215" y="163" font-family="Outfit,Segoe UI,Arial,sans-serif" font-size="21" font-weight="500" fill="rgba(255,255,255,0.72)" letter-spacing="5.5">VISION FORGE</text></svg>